<svg xmlns="http://www.w3.org/2000/svg" viewBox="0 0 110 110"><circle cx="50.65" cy="58.98" r="2.98" fill="#174149"/><circle cx="55.73" cy="46.69" r="3.14" fill="#16515c"/><circle cx="61.22" cy="63.11" r="3.26" fill="#155d6a"/><circle cx="43.38" cy="52.95" r="3.37" fill="#16616e"/><circle cx="66.13" cy="47.92" r="3.46" fill="#186472"/><circle cx="51.25" cy="68.95" r="3.54" fill="#196876"/><circle cx="47.81" cy="41.15" r="3.61" fill="#196b79"/><circle cx="70.67" cy="60.72" r="3.68" fill="#1a6d7c"/><circle cx="38.65" cy="61.75" r="3.75" fill="#1b707f"/><circle cx="62.90" cy="38.11" r="3.81" fill="#1c7282"/><circle cx="60.85" cy="73.66" r="3.87" fill="#1d7585"/><circle cx="37.32" cy="44.76" r="3.93" fill="#1f7888"/><circle cx="75.77" cy="50.43" r="3.98" fill="#237c8d"/><circle cx="42.31" cy="73.05" r="4.03" fill="#278091"/><circle cx="52.06" cy="32.35" r="4.08" fill="#2b8495"/><circle cx="73.04" cy="70.20" r="4.13" fill="#2f8899"/><circle cx="30.70" cy="56.00" r="4.18" fill="#338c9d"/><circle cx="72.74" cy="37.35" r="4.23" fill="#368fa1"/><circle cx="53.81" cy="80.68" r="4.27" fill="#3a93a5"/><circle cx="38.10" cy="34.75" r="4.31" fill="#3d96a8"/><circle cx="81.79" cy="58.60" r="4.36" fill="#4099ac"/><circle cx="32.29" cy="70.80" r="4.40" fill="#439caf"/><circle cx="61.21" cy="27.41" r="4.44" fill="#469fb3"/><circle cx="69.36" cy="80.07" r="4.48" fill="#49a2b6"/><circle cx="26.91" cy="46.04" r="4.52" fill="#4ca5b9"/><circle cx="82.30" cy="42.39" r="4.55" fill="#50a8bc"/><circle cx="43.17" cy="83.27" r="4.59" fill="#55abbe"/><circle cx="44.44" cy="25.63" r="4.63" fill="#5aaec0"/><circle cx="83.11" cy="69.78" r="4.66" fill="#5fb0c2"/><circle cx="23.76" cy="63.23" r="4.70" fill="#63b3c4"/><circle cx="72.76" cy="27.38" r="4.73" fill="#68b5c6"/><circle cx="60.65" cy="87.88" r="4.77" fill="#6db7c8"/><circle cx="28.21" cy="34.26" r="4.80" fill="#72baca"/><circle cx="89.27" cy="52.16" r="4.84" fill="#76bccb"/><circle cx="31.31" cy="80.61" r="4.87" fill="#7bbecd"/><circle cx="55.17" cy="19.61" r="4.90" fill="#7fc1cf"/><circle cx="79.10" cy="81.57" r="4.93" fill="#83c3d1"/><circle cx="18.80" cy="51.65" r="4.96" fill="#88c5d2"/><circle cx="84.34" cy="32.73" r="4.99" fill="#8cc7d4"/><circle cx="48.32" cy="91.70" r="5.02" fill="#90cad6"/><circle cx="34.89" cy="23.04" r="5.05" fill="#94ccd7"/><circle cx="91.86" cy="65.10" r="5.08" fill="#98ced9"/><circle cx="20.59" cy="72.66" r="5.11" fill="#9cd0da"/><circle cx="68.60" cy="18.32" r="5.14" fill="#a0d2dc"/><circle cx="69.92" cy="91.64" r="5.17" fill="#a4d4dd"/><circle cx="18.85" cy="37.87" r="5.20" fill="#A8D6DF"/></svg>